<svg xmlns="http://www.w3.org/2000/svg" width="19.91" height="20.362" viewBox="0 0 19.91 20.362">
  <g id="calendar_2_" data-name="calendar (2)" transform="translate(-5.411)">
    <g id="Group_14511" data-name="Group 14511" transform="translate(5.411)">
      <path id="Path_43133" data-name="Path 43133" d="M119.572,258.7a.462.462,0,0,0-.462-.462H117.5a.462.462,0,0,0-.462.462v1.613a.462.462,0,0,0,.462.462h1.613a.462.462,0,0,0,.462-.462V258.7Z" transform="translate(-112.379 -247.47)" fill="#fff"/>
      <path id="Path_43134" data-name="Path 43134" d="M216.207,258.7a.462.462,0,0,0-.462-.462h-1.613a.462.462,0,0,0-.462.462v1.613a.462.462,0,0,0,.462.462h1.613a.462.462,0,0,0,.462-.462Z" transform="translate(-204.983 -247.47)" fill="#fff"/>
      <path id="Path_43135" data-name="Path 43135" d="M312.835,258.7a.462.462,0,0,0-.462-.462H310.76a.462.462,0,0,0-.462.462v1.613a.462.462,0,0,0,.462.462h1.613a.462.462,0,0,0,.462-.462Z" transform="translate(-297.581 -247.47)" fill="#fff"/>
      <path id="Path_43136" data-name="Path 43136" d="M119.572,355.337a.462.462,0,0,0-.462-.462H117.5a.462.462,0,0,0-.462.462v1.612a.462.462,0,0,0,.462.462h1.613a.462.462,0,0,0,.462-.462v-1.612Z" transform="translate(-112.379 -340.073)" fill="#fff"/>
      <path id="Path_43137" data-name="Path 43137" d="M216.207,355.337a.462.462,0,0,0-.462-.462h-1.613a.462.462,0,0,0-.462.462v1.612a.462.462,0,0,0,.462.462h1.613a.462.462,0,0,0,.462-.462Z" transform="translate(-204.983 -340.073)" fill="#fff"/>
      <path id="Path_43138" data-name="Path 43138" d="M312.835,355.337a.462.462,0,0,0-.462-.462H310.76a.462.462,0,0,0-.462.462v1.612a.462.462,0,0,0,.462.462h1.613a.462.462,0,0,0,.462-.462v-1.612Z" transform="translate(-297.581 -340.073)" fill="#fff"/>
      <path id="Path_43139" data-name="Path 43139" d="M23.549,54.151v2.463a2.012,2.012,0,0,1-2.016,2.01H20.261a2.022,2.022,0,0,1-2.028-2.01V54.142H12.5v2.472a2.022,2.022,0,0,1-2.028,2.01H9.2a2.012,2.012,0,0,1-2.016-2.01V54.151a1.833,1.833,0,0,0-1.772,1.824V70.409a1.834,1.834,0,0,0,1.825,1.836H23.5a1.836,1.836,0,0,0,1.825-1.836V55.975A1.833,1.833,0,0,0,23.549,54.151Zm-.591,15.36a.789.789,0,0,1-.789.789H8.528a.789.789,0,0,1-.789-.789V62.054a.789.789,0,0,1,.789-.789H22.169a.789.789,0,0,1,.789.789V69.51Z" transform="translate(-5.411 -51.884)" fill="#fff"/>
      <path id="Path_43140" data-name="Path 43140" d="M80.242,5.42H81.5a.691.691,0,0,0,.691-.691V.691A.691.691,0,0,0,81.5,0H80.242a.691.691,0,0,0-.691.691V4.729A.691.691,0,0,0,80.242,5.42Z" transform="translate(-76.458)" fill="#fff"/>
      <path id="Path_43141" data-name="Path 43141" d="M345.149,5.42h1.258a.691.691,0,0,0,.691-.691V.691A.691.691,0,0,0,346.408,0h-1.258a.691.691,0,0,0-.691.691V4.729A.691.691,0,0,0,345.149,5.42Z" transform="translate(-330.316)" fill="#fff"/>
    </g>
  </g>
</svg>
