<svg id="Group_14135" data-name="Group 14135" xmlns="http://www.w3.org/2000/svg" width="50.075" height="60.712" viewBox="0 0 50.075 60.712">
  <g id="Group_14133" data-name="Group 14133" transform="translate(0 0)">
    <path id="Path_22977" data-name="Path 22977" d="M209.011,430.715a4.818,4.818,0,0,1,.052-.832,5.4,5.4,0,0,0-.308-2.626c-.3-.813-.727-1.576-.947-2.417-.206-.79-.344-1.6-.5-2.4a9.222,9.222,0,0,1-.3-1.637.733.733,0,0,0-.844-.782c-.052.005-.112-.057-.165-.093-.336-.226-.721-.445-1.054-.7a2.646,2.646,0,0,1-1.089-2.7,14.476,14.476,0,0,1,1.964-4.395c.763-1.356,1.918-3.221,1.312-4.833a18.319,18.319,0,0,1-.642-2.275,14.7,14.7,0,0,1-.371-3.3c-.006-.624.008-1.248.03-1.871a17.052,17.052,0,0,1,3.521-9.128c.16-.227.341-.44.52-.652.213-.252.427-.5.654-.743.4-.419.8-.838,1.211-1.241a21.251,21.251,0,0,1,4.33-3.185,28.52,28.52,0,0,1,11.349-3.541,37.951,37.951,0,0,1,4.638-.08,22.2,22.2,0,0,1,11.106,3.567,22.862,22.862,0,0,1,7.4,7.5,22.066,22.066,0,0,1,2.35,5.45,21.743,21.743,0,0,1,.645,6.136,19.568,19.568,0,0,1-1,6.023c-1.311,3.858-3.632,7.249-5.078,11.043q-.067.176-.131.352a14.2,14.2,0,0,0-.237,8.984.532.532,0,0,1,.032.243c-.105.555-.973.611-1.384.795-1.015.453-1.964,1.049-2.939,1.581-1.149.627-2.307,1.241-3.478,1.826q-5.68,2.84-11.3,5.8a12.968,12.968,0,0,0-2.174,1.238c-.06.049-.127.146-.176.138a.289.289,0,0,1-.2-.157c-.083-.257-.266-.47-.372-.717-.4-.916-.869-1.8-1.278-2.707a17.268,17.268,0,0,0-1.434-2.746,5.564,5.564,0,0,0-.577-.643,1.077,1.077,0,0,0-.234-.19,2.294,2.294,0,0,0-.34-.157c-.171-.066-.352-.108-.516-.186a1.93,1.93,0,0,0-1.094-.135,21.35,21.35,0,0,1-4.042.324c-.447-.026-.9.017-1.346-.01-.611-.037-1.223-.085-1.832-.147a4.351,4.351,0,0,1-2.415-.88A3.836,3.836,0,0,1,209.1,431.5,4.243,4.243,0,0,1,209.011,430.715Zm23.431-14.663c.062,1.087.393,2,1.648,2.016.977.014,1.944-.053,2.923-.016,1.288.049,3.761.45,3.819-1.424a9.084,9.084,0,0,1,.143-1.391,5.826,5.826,0,0,1,1.243-3.052,16.12,16.12,0,0,1,2.185-1.553,5.564,5.564,0,0,0,1.682-2.216,13.071,13.071,0,0,0,.974-7.9,23.687,23.687,0,0,0-1.051-3.841,7.556,7.556,0,0,0-2.324-2.784c-2.752-2.366-6.088-2.975-9.453-3.991a20.332,20.332,0,0,0-6.451-1.088,13.709,13.709,0,0,0-4.105,1.14c-1.467.507-2.96.941-4.395,1.536a8.176,8.176,0,0,0-2.443,1.438c-1.211,1.112-1.8,2.7-2.857,3.939a4.732,4.732,0,0,0-1.2,1.619,8.142,8.142,0,0,0-.454,2.792c.02,1.432,1.02,2.714,1.883,3.774s1.747,2,3.233,1.992c1.216,0,2.482-.661,3.6.156.7.51.979,1.418,1.546,2.074,1.037,1.2,2.8,1.332,4.265,1.115a9.226,9.226,0,0,1,2.743-.252,3.539,3.539,0,0,1,2.823,2.906C232.576,413.776,232.382,415,232.442,416.053Z" transform="translate(-203.813 -381.251)" fill="#fff"/>
    <path id="Path_22978" data-name="Path 22978" d="M285.384,443.214a8.865,8.865,0,0,0,6.87-3.624,6.49,6.49,0,0,0,1.074-1.831c.052-.157-.046-.263-.187-.315a2.04,2.04,0,0,1-.973-.483.514.514,0,0,1,.02-.707,18.883,18.883,0,0,1,1.573-1.333c.54-.426,1.062-.87,1.579-1.325.649-.573,1.006.853,1.1,1.248.138.568.274,1.137.393,1.709a7.573,7.573,0,0,1,.258,1.7.415.415,0,0,1-.116.264c-.2.186-.41.368-.693.256a5.231,5.231,0,0,1-.727-.353c-.151-.089-.326-.172-.433.024-.16.294-.291.6-.464.889a12.384,12.384,0,0,1-5.927,5.1,8.625,8.625,0,0,1-3.085.632,3.275,3.275,0,0,1-1-.009.911.911,0,0,1-.572-1.138,1.4,1.4,0,0,1,1.292-.706Z" transform="translate(-263.513 -420.116)" fill="#fff"/>
    <path id="Path_22979" data-name="Path 22979" d="M325.057,472.283a3.625,3.625,0,0,1-1.792-.392,3.683,3.683,0,0,1-1.854-2.063,4.1,4.1,0,0,1,.1-2.838,3.671,3.671,0,0,1,2.236-1.975,3.744,3.744,0,0,1,3.13.336,4.386,4.386,0,0,1,.694.562,3.8,3.8,0,0,1,1,1.573,3.616,3.616,0,0,1-.073,2.378A3.824,3.824,0,0,1,325.057,472.283Zm-.16-1.4a2.261,2.261,0,0,0,1.888-.849,2.194,2.194,0,0,0,.485-1.958,2.913,2.913,0,0,0-1.025-1.457,2.152,2.152,0,0,0-1.8-.347,2.428,2.428,0,0,0-1.627,1.235,2.363,2.363,0,0,0,2.075,3.375Z" transform="translate(-291.195 -443.457)" fill="#fff"/>
  </g>
  <g id="Group_14134" data-name="Group 14134" transform="translate(18.128 10.682)">
    <path id="Path_22980" data-name="Path 22980" d="M283.906,427.628a.863.863,0,0,1-.863.863h-2.864v2.864a.863.863,0,1,1-1.726,0v-2.864h-2.864a.863.863,0,0,1,0-1.726h2.864V423.9a.863.863,0,1,1,1.726,0v2.864h2.864A.863.863,0,0,1,283.906,427.628Z" transform="translate(-274.726 -423.038)" fill="#fff"/>
  </g>
</svg>
