<svg xmlns="http://www.w3.org/2000/svg" width="28.574" height="28.303" viewBox="0 0 28.574 28.303">
  <g id="Group_14734" data-name="Group 14734" transform="translate(-1722 -148.739)">
    <g id="edit_1_" data-name="edit (1)" transform="translate(1722 148.739)">
      <path id="Path_42020" data-name="Path 42020" d="M183.26,81.717a.86.86,0,0,0-.233.433l-1.2,6.013a.85.85,0,0,0,.835,1.017.81.81,0,0,0,.167-.017l6.011-1.2a.847.847,0,0,0,.435-.233l13.455-13.455-6.011-6.011Zm0,0" transform="translate(-181.808 -60.877)" fill="#a2a2a2"/>
      <path id="Path_42021" data-name="Path 42021" d="M399.81,1.745a4.254,4.254,0,0,0-6.011,0L391.446,4.1l6.011,6.011,2.353-2.354a4.251,4.251,0,0,0,0-6.011Zm0,0" transform="translate(-372.481 -0.501)" fill="#a2a2a2"/>
    </g>
  </g>
</svg>
