<svg xmlns="http://www.w3.org/2000/svg" width="23.532" height="19.961" viewBox="0 0 23.532 19.961">
  <g id="group_2_" data-name="group (2)" transform="translate(0 -38.84)">
    <g id="Group_14500" data-name="Group 14500" transform="translate(18.315 49.617)">
      <g id="Group_14499" data-name="Group 14499">
        <path id="Path_43123" data-name="Path 43123" d="M400.314,273.32h-1.82a4.733,4.733,0,0,1,.287,1.627v6.878a2.028,2.028,0,0,1-.117.679h3.009a2.04,2.04,0,0,0,2.038-2.038v-3.749A3.4,3.4,0,0,0,400.314,273.32Z" transform="translate(-398.494 -273.32)" fill="#fff"/>
      </g>
    </g>
    <g id="Group_14502" data-name="Group 14502" transform="translate(0 49.617)">
      <g id="Group_14501" data-name="Group 14501" transform="translate(0 0)">
        <path id="Path_43124" data-name="Path 43124" d="M4.93,274.948a4.734,4.734,0,0,1,.287-1.627H3.4a3.4,3.4,0,0,0-3.4,3.4v3.749a2.04,2.04,0,0,0,2.038,2.038H5.047a2.029,2.029,0,0,1-.117-.679Z" transform="translate(0 -273.321)" fill="#fff"/>
      </g>
    </g>
    <g id="Group_14504" data-name="Group 14504" transform="translate(6.289 47.847)">
      <g id="Group_14503" data-name="Group 14503" transform="translate(0 0)">
        <path id="Path_43125" data-name="Path 43125" d="M144.386,234.815h-4.16a3.4,3.4,0,0,0-3.4,3.4v6.878a.679.679,0,0,0,.679.679h9.6a.679.679,0,0,0,.679-.679v-6.878A3.4,3.4,0,0,0,144.386,234.815Z" transform="translate(-136.829 -234.815)" fill="#fff"/>
      </g>
    </g>
    <g id="Group_14506" data-name="Group 14506" transform="translate(7.681 38.84)">
      <g id="Group_14505" data-name="Group 14505" transform="translate(0 0)">
        <path id="Path_43126" data-name="Path 43126" d="M171.2,38.84a4.085,4.085,0,1,0,4.085,4.085A4.09,4.09,0,0,0,171.2,38.84Z" transform="translate(-167.114 -38.84)" fill="#fff"/>
      </g>
    </g>
    <g id="Group_14508" data-name="Group 14508" transform="translate(1.537 42.648)">
      <g id="Group_14507" data-name="Group 14507" transform="translate(0 0)">
        <path id="Path_43127" data-name="Path 43127" d="M36.5,121.689a3.054,3.054,0,1,0,3.055,3.055A3.059,3.059,0,0,0,36.5,121.689Z" transform="translate(-33.443 -121.689)" fill="#fff"/>
      </g>
    </g>
    <g id="Group_14510" data-name="Group 14510" transform="translate(15.884 42.648)">
      <g id="Group_14509" data-name="Group 14509" transform="translate(0 0)">
        <path id="Path_43128" data-name="Path 43128" d="M348.662,121.689a3.055,3.055,0,1,0,3.055,3.055A3.059,3.059,0,0,0,348.662,121.689Z" transform="translate(-345.607 -121.689)" fill="#fff"/>
      </g>
    </g>
  </g>
</svg>
